<svg width="187" height="58" viewBox="0 0 187 58" fill="none" xmlns="http://www.w3.org/2000/svg">
<g clip-path="url(#clip0_6055_1015)">
<path d="M22.9838 29.0024C22.9812 27.014 23.5279 25.0636 24.5634 23.3662H14.623C13.5449 27.0463 13.5449 30.9584 14.623 34.6386H24.5634C23.5279 32.9411 22.9812 30.9907 22.9838 29.0024Z" fill="white"/>
<path d="M19.1892 18.1738C21.0467 18.1733 22.8731 18.6507 24.4928 19.56C26.1125 20.4693 27.4711 21.7799 28.4379 23.366H38.3783C37.1619 19.2191 34.6348 15.5778 31.1755 12.9874C27.7162 10.3971 23.5108 8.99707 19.1892 8.99707C14.8675 8.99707 10.6621 10.3971 7.20282 12.9874C3.74351 15.5778 1.21642 19.2191 0 23.366H9.94042C10.9073 21.7799 12.2658 20.4693 13.8856 19.56C15.5053 18.6507 17.3317 18.1733 19.1892 18.1738ZM19.1892 39.8305C17.3317 39.831 15.5053 39.3537 13.8856 38.4444C12.2658 37.5351 10.9073 36.2244 9.94042 34.6383H0C1.21642 38.7853 3.74351 42.4266 7.20282 45.0169C10.6621 47.6072 14.8675 49.0072 19.1892 49.0072C23.5108 49.0072 27.7162 47.6072 31.1755 45.0169C34.6348 42.4266 37.1619 38.7853 38.3783 34.6383H28.4379C27.4711 36.2244 26.1125 37.5351 24.4928 38.4444C22.8731 39.3537 21.0467 39.831 19.1892 39.8305Z" fill="white"/>
</g>
<path d="M50.2742 40V18.1818H59.01C60.6151 18.1818 61.9539 18.4197 63.0264 18.8956C64.0988 19.3714 64.9049 20.032 65.4447 20.8771C65.9845 21.7152 66.2544 22.6811 66.2544 23.7749C66.2544 24.6271 66.0839 25.3764 65.743 26.0227C65.4021 26.6619 64.9333 27.1875 64.3367 27.5994C63.7472 28.0043 63.0725 28.2919 62.3126 28.4624V28.6754C63.1436 28.7109 63.9213 28.9453 64.6457 29.3786C65.3772 29.8118 65.9703 30.419 66.4248 31.2003C66.8794 31.9744 67.1066 32.8977 67.1066 33.9702C67.1066 35.1278 66.819 36.1612 66.2437 37.0703C65.6755 37.9723 64.8339 38.6861 63.7188 39.2116C62.6038 39.7372 61.2295 40 59.596 40H50.2742ZM54.8872 36.2287H58.6478C59.9333 36.2287 60.8708 35.9837 61.4603 35.4936C62.0498 34.9964 62.3445 34.3359 62.3445 33.5121C62.3445 32.9084 62.199 32.3757 61.9078 31.9141C61.6166 31.4524 61.2011 31.0902 60.6613 30.8274C60.1286 30.5646 59.493 30.4332 58.7544 30.4332H54.8872V36.2287ZM54.8872 27.3118H58.3069C58.939 27.3118 59.5001 27.2017 59.9901 26.9815C60.4873 26.7543 60.8779 26.4347 61.162 26.0227C61.4532 25.6108 61.5988 25.1172 61.5988 24.5419C61.5988 23.7536 61.3183 23.1179 60.7572 22.6349C60.2032 22.152 59.4149 21.9105 58.3921 21.9105H54.8872V27.3118ZM68.583 40V23.6364H73.1213V40H68.583ZM70.8628 21.527C70.1881 21.527 69.6093 21.3033 69.1263 20.8558C68.6505 20.4013 68.4125 19.858 68.4125 19.2259C68.4125 18.6009 68.6505 18.0646 69.1263 17.6172C69.6093 17.1626 70.1881 16.9354 70.8628 16.9354C71.5375 16.9354 72.1128 17.1626 72.5887 17.6172C73.0716 18.0646 73.3131 18.6009 73.3131 19.2259C73.3131 19.858 73.0716 20.4013 72.5887 20.8558C72.1128 21.3033 71.5375 21.527 70.8628 21.527ZM75.2316 40V37.294L83.243 27.3757V27.2585H75.5086V23.6364H88.7082V26.5874L81.1868 36.2607V36.3778H88.9851V40H75.2316ZM91.1007 18.1818H96.7896L102.798 32.8409H103.054L109.062 18.1818H114.751V40H110.277V25.799H110.096L104.449 39.8935H101.403L95.7563 25.7457H95.5752V40H91.1007V18.1818ZM121.693 40.3089C120.649 40.3089 119.718 40.1278 118.902 39.7656C118.085 39.3963 117.439 38.853 116.963 38.1357C116.494 37.4112 116.26 36.5092 116.26 35.4297C116.26 34.5206 116.427 33.7571 116.76 33.1392C117.094 32.5213 117.549 32.0241 118.124 31.6477C118.699 31.2713 119.353 30.9872 120.084 30.7955C120.823 30.6037 121.597 30.4688 122.407 30.3906C123.358 30.2912 124.125 30.1989 124.708 30.1136C125.29 30.0213 125.713 29.8864 125.976 29.7088C126.238 29.5312 126.37 29.2685 126.37 28.9205V28.8565C126.37 28.1818 126.157 27.6598 125.73 27.2905C125.311 26.9212 124.715 26.7365 123.941 26.7365C123.124 26.7365 122.474 26.9176 121.991 27.2798C121.508 27.6349 121.189 28.0824 121.032 28.6222L116.835 28.2812C117.048 27.2869 117.467 26.4276 118.092 25.7031C118.717 24.9716 119.523 24.4105 120.51 24.0199C121.505 23.6222 122.655 23.4233 123.962 23.4233C124.871 23.4233 125.741 23.5298 126.572 23.7429C127.41 23.956 128.152 24.2862 128.799 24.7337C129.452 25.1811 129.967 25.7564 130.343 26.4595C130.72 27.1555 130.908 27.9901 130.908 28.9631V40H126.604V37.7308H126.476C126.213 38.2422 125.862 38.6932 125.422 39.0838C124.981 39.4673 124.452 39.7692 123.834 39.9893C123.216 40.2024 122.503 40.3089 121.693 40.3089ZM122.993 37.1768C123.66 37.1768 124.25 37.0455 124.761 36.7827C125.272 36.5128 125.674 36.1506 125.965 35.696C126.256 35.2415 126.402 34.7266 126.402 34.1513V32.4148C126.26 32.5071 126.064 32.5923 125.816 32.6705C125.574 32.7415 125.301 32.8089 124.995 32.8729C124.69 32.9297 124.385 32.983 124.079 33.0327C123.774 33.0753 123.497 33.1143 123.248 33.1499C122.716 33.228 122.25 33.3523 121.853 33.5227C121.455 33.6932 121.146 33.924 120.926 34.2152C120.706 34.4993 120.596 34.8544 120.596 35.2805C120.596 35.8984 120.819 36.3707 121.267 36.6974C121.721 37.017 122.297 37.1768 122.993 37.1768ZM146.604 28.3026L142.449 28.5582C142.378 28.2031 142.226 27.8835 141.991 27.5994C141.757 27.3082 141.448 27.0774 141.064 26.907C140.688 26.7294 140.237 26.6406 139.711 26.6406C139.008 26.6406 138.415 26.7898 137.932 27.0881C137.449 27.3793 137.208 27.7699 137.208 28.2599C137.208 28.6506 137.364 28.9808 137.677 29.2507C137.989 29.5206 138.525 29.7372 139.285 29.9006L142.247 30.4972C143.838 30.8239 145.024 31.3494 145.805 32.0739C146.586 32.7983 146.977 33.75 146.977 34.929C146.977 36.0014 146.661 36.9425 146.029 37.7521C145.404 38.5618 144.544 39.1939 143.451 39.6484C142.364 40.0959 141.11 40.3196 139.69 40.3196C137.524 40.3196 135.798 39.8686 134.512 38.9666C133.234 38.0575 132.485 36.8217 132.265 35.2592L136.728 35.0249C136.863 35.6854 137.19 36.1896 137.708 36.5376C138.227 36.8786 138.891 37.049 139.701 37.049C140.496 37.049 141.135 36.8963 141.618 36.5909C142.108 36.2784 142.357 35.8771 142.364 35.3871C142.357 34.9751 142.183 34.6378 141.842 34.375C141.501 34.1051 140.976 33.8991 140.265 33.7571L137.431 33.1925C135.833 32.8729 134.644 32.3189 133.863 31.5305C133.088 30.7422 132.701 29.7372 132.701 28.5156C132.701 27.4645 132.985 26.5589 133.554 25.799C134.129 25.0391 134.935 24.4531 135.972 24.0412C137.016 23.6293 138.238 23.4233 139.637 23.4233C141.704 23.4233 143.33 23.8601 144.516 24.7337C145.709 25.6072 146.405 26.7969 146.604 28.3026ZM157.099 23.6364V27.0455H147.244V23.6364H157.099ZM149.481 19.7159H154.02V34.9716C154.02 35.3906 154.084 35.7173 154.211 35.9517C154.339 36.179 154.517 36.3388 154.744 36.4311C154.979 36.5234 155.248 36.5696 155.554 36.5696C155.767 36.5696 155.98 36.5518 156.193 36.5163C156.406 36.4737 156.569 36.4418 156.683 36.4205L157.397 39.7976C157.17 39.8686 156.85 39.9503 156.438 40.0426C156.026 40.142 155.525 40.2024 154.936 40.2237C153.842 40.2663 152.883 40.1207 152.059 39.7869C151.243 39.4531 150.607 38.9347 150.153 38.2315C149.698 37.5284 149.474 36.6406 149.481 35.5682V19.7159ZM165.896 40.3196C164.213 40.3196 162.764 39.9787 161.55 39.2969C160.342 38.608 159.412 37.6349 158.759 36.3778C158.105 35.1136 157.779 33.6186 157.779 31.8928C157.779 30.2095 158.105 28.7322 158.759 27.4609C159.412 26.1896 160.332 25.1989 161.518 24.4886C162.711 23.7784 164.11 23.4233 165.715 23.4233C166.795 23.4233 167.8 23.5973 168.73 23.9453C169.668 24.2862 170.485 24.8011 171.181 25.4901C171.884 26.179 172.431 27.0455 172.821 28.0895C173.212 29.1264 173.407 30.3409 173.407 31.733V32.9794H159.59V30.1669H169.135C169.135 29.5135 168.993 28.9347 168.709 28.4304C168.425 27.9261 168.031 27.532 167.526 27.2479C167.029 26.9567 166.45 26.8111 165.79 26.8111C165.101 26.8111 164.49 26.9709 163.958 27.2905C163.432 27.603 163.02 28.0256 162.722 28.5582C162.423 29.0838 162.271 29.6697 162.264 30.3161V32.9901C162.264 33.7997 162.413 34.4993 162.711 35.0888C163.017 35.6783 163.446 36.1328 164 36.4524C164.554 36.772 165.211 36.9318 165.971 36.9318C166.475 36.9318 166.937 36.8608 167.356 36.7188C167.775 36.5767 168.134 36.3636 168.432 36.0795C168.73 35.7955 168.958 35.4474 169.114 35.0355L173.311 35.3125C173.098 36.321 172.661 37.2017 172.001 37.9545C171.347 38.7003 170.502 39.2827 169.465 39.7017C168.436 40.1136 167.246 40.3196 165.896 40.3196ZM174.929 40V23.6364H179.329V26.4915H179.499C179.797 25.4759 180.298 24.7088 181.001 24.1903C181.704 23.6648 182.514 23.402 183.43 23.402C183.657 23.402 183.902 23.4162 184.165 23.4446C184.428 23.473 184.659 23.5121 184.858 23.5618V27.5888C184.645 27.5249 184.35 27.468 183.974 27.4183C183.597 27.3686 183.253 27.3438 182.94 27.3438C182.273 27.3438 181.676 27.4893 181.15 27.7805C180.632 28.0646 180.22 28.4624 179.915 28.9737C179.616 29.4851 179.467 30.0746 179.467 30.7422V40H174.929Z" fill="white"/>
<defs>
<clipPath id="clip0_6055_1015">
<rect width="38.3783" height="40" fill="white" transform="translate(0 9)"/>
</clipPath>
</defs>
</svg>
