<svg width="65" height="65" viewBox="0 0 65 65" fill="none" xmlns="http://www.w3.org/2000/svg">
  <path d="M45.7032 13.7109H36.5626C35.2303 13.6897 35.2254 11.7019 36.5626 11.6797H45.7032C47.0356 11.7009 47.0404 13.6888 45.7032 13.7109Z" fill="#000000"/>
  <path d="M45.703 17.7734H39.6093C38.276 17.7519 38.2729 15.7643 39.6093 15.7422H45.703C47.0363 15.7637 47.0395 17.7513 45.703 17.7734Z" fill="#000000"/>
  <path d="M45.7032 28.9453H36.5626C35.2303 28.9241 35.2254 26.9362 36.5626 26.9141H45.7032C47.0356 26.9353 47.0404 28.9231 45.7032 28.9453Z" fill="#000000"/>
  <path d="M45.703 33.0078H39.6093C38.276 32.9863 38.2729 30.9987 39.6093 30.9766H45.703C47.0363 30.9981 47.0395 32.9857 45.703 33.0078Z" fill="#000000"/>
  <path d="M44.6875 3.55469H8.125C4.76471 3.55469 2.03125 6.28815 2.03125 9.64844V52.3047C2.03125 55.665 4.76471 58.3984 8.125 58.3984H44.6875C48.0478 58.3984 50.7812 55.665 50.7812 52.3047V9.64844C50.7812 6.28815 48.0478 3.55469 44.6875 3.55469ZM48.75 52.3047C48.75 54.5452 46.928 56.3672 44.6875 56.3672H8.125C5.88448 56.3672 4.0625 54.5452 4.0625 52.3047V9.64844C4.0625 7.40792 5.88448 5.58594 8.125 5.58594H44.6875C46.928 5.58594 48.75 7.40792 48.75 9.64844V52.3047Z" fill="#000000"/>
  <path d="M32.7975 11.9772L32.4614 12.3134C32.2711 10.8149 31.0025 9.64844 29.4531 9.64844H23.3594C21.6792 9.64844 20.3125 11.0152 20.3125 12.6953V18.7891C20.3125 20.4692 21.6792 21.8359 23.3594 21.8359H29.4531C31.1333 21.8359 32.5 20.4692 32.5 18.7891V15.1471L34.2337 13.4134C35.1689 12.4705 33.7403 11.042 32.7975 11.9772ZM30.4688 18.7891C30.4688 19.3494 30.0135 19.8047 29.4531 19.8047H23.3594C22.799 19.8047 22.3438 19.3494 22.3438 18.7891V12.6953C22.3438 12.1349 22.799 11.6797 23.3594 11.6797H29.4531C30.0135 11.6797 30.4688 12.1349 30.4688 12.6953V14.306L28.4375 16.3373L27.1243 15.0241C26.1821 14.0896 24.7524 15.5168 25.6882 16.4603C25.6882 16.4603 27.7194 18.4915 27.7194 18.4915C27.9178 18.6899 28.1776 18.7891 28.4375 18.7891C29.0598 18.8658 29.894 17.6707 30.4687 17.1783L30.4688 18.7891Z" fill="#000000"/>
  <path d="M15.2344 9.64844H9.14063C7.46048 9.64844 6.09375 11.0152 6.09375 12.6953V18.7891C6.09375 20.4692 7.46048 21.8359 9.14063 21.8359H15.2344C16.9145 21.8359 18.2812 20.4692 18.2812 18.7891V12.6953C18.2812 11.0152 16.9145 9.64844 15.2344 9.64844ZM14.9368 17.0554C15.8719 17.9987 14.4435 19.4265 13.5006 18.4915C13.5007 18.4915 12.1875 17.1784 12.1875 17.1784L10.8743 18.4915C10.4776 18.8882 9.8349 18.8882 9.43817 18.4915C9.04145 18.0948 9.04145 17.4521 9.43817 17.0554L10.7513 15.7422L9.43817 14.429C9.04145 14.0323 9.04145 13.3896 9.43817 12.9929C9.8349 12.5961 10.4776 12.5961 10.8743 12.9929L12.1875 14.306L13.5007 12.9929C13.8974 12.5961 14.5401 12.5961 14.9368 12.9929C15.3336 13.3896 15.3336 14.0323 14.9368 14.429L13.6237 15.7422L14.9368 17.0554Z" fill="#000000"/>
  <path d="M32.7975 27.2116L32.4614 27.5478C32.2711 26.0493 31.0025 24.8828 29.4531 24.8828H23.3594C21.6792 24.8828 20.3125 26.2495 20.3125 27.9297V34.0234C20.3125 35.7036 21.6792 37.0703 23.3594 37.0703H29.4531C31.1333 37.0703 32.5 35.7036 32.5 34.0234V30.3815L34.2337 28.6478C35.1689 27.7049 33.7403 26.2764 32.7975 27.2116ZM30.4688 34.0234C30.4688 34.5838 30.0135 35.0391 29.4531 35.0391H23.3594C22.799 35.0391 22.3438 34.5838 22.3438 34.0234V27.9297C22.3438 27.3693 22.799 26.9141 23.3594 26.9141H29.4531C30.0135 26.9141 30.4688 27.3693 30.4688 27.9297V29.5404L28.4375 31.5716L27.1243 30.2584C26.1821 29.3239 24.7524 30.7511 25.6882 31.6946C25.6882 31.6946 27.7194 33.7258 27.7194 33.7258C27.9178 33.9242 28.1776 34.0234 28.4375 34.0234C29.0598 34.1001 29.894 32.905 30.4687 32.4126L30.4688 34.0234Z" fill="#000000"/>
  <path d="M15.2344 24.8828H9.14063C7.46048 24.8828 6.09375 26.2495 6.09375 27.9297V34.0234C6.09375 35.7036 7.46048 37.0703 9.14063 37.0703H15.2344C16.9145 37.0703 18.2812 35.7036 18.2812 34.0234V27.9297C18.2812 26.2495 16.9145 24.8828 15.2344 24.8828ZM14.9368 32.2897C15.8719 33.233 14.4435 34.6608 13.5006 33.7258C13.5007 33.7258 12.1875 32.4126 12.1875 32.4126L10.8743 33.7258C10.4776 34.1225 9.8349 34.1225 9.43817 33.7258C9.04145 33.329 9.04145 32.6863 9.43817 32.2897L10.7513 30.9766L9.43817 29.6634C9.04145 29.2667 9.04145 28.6239 9.43817 28.2273C9.8349 27.8305 10.4776 27.8305 10.8743 28.2273L12.1875 29.5404L13.5007 28.2273C13.8974 27.8305 14.5401 27.8305 14.9368 28.2273C15.3336 28.6239 15.3336 29.2667 14.9368 29.6634L13.6237 30.9766L14.9368 32.2897Z" fill="#000000"/>
  <path d="M32.7975 42.4466L32.4614 42.7828C32.2711 41.2843 31.0025 40.1178 29.4531 40.1178H23.3594C21.6792 40.1178 20.3125 41.4845 20.3125 43.1647V49.2584C20.3125 50.9386 21.6792 52.3053 23.3594 52.3053H29.4531C31.1333 52.3053 32.5 50.9386 32.5 49.2584V45.6165L34.2337 43.8828C35.1689 42.9399 33.7403 41.5114 32.7975 42.4466ZM30.4688 49.2584C30.4688 49.8188 30.0135 50.274 29.4531 50.274H23.3594C22.799 50.274 22.3438 49.8188 22.3438 49.2584V43.1647C22.3438 42.6043 22.799 42.1491 23.3594 42.1491H29.4531C30.0135 42.1491 30.4688 42.6043 30.4688 43.1647V44.7754L28.4375 46.8066L27.1243 45.4934C26.1821 44.5589 24.7524 45.9861 25.6882 46.9296C25.6882 46.9296 27.7194 48.9608 27.7194 48.9608C27.9178 49.1592 28.1776 49.2584 28.4375 49.2584C29.0598 49.3351 29.894 48.14 30.4687 47.6476L30.4688 49.2584Z" fill="#000000"/>
  <path d="M15.2344 40.1178H9.14063C7.46048 40.1178 6.09375 41.4845 6.09375 43.1647V49.2584C6.09375 50.9386 7.46048 52.3053 9.14063 52.3053H15.2344C16.9145 52.3053 18.2812 50.9386 18.2812 49.2584V43.1647C18.2812 41.4845 16.9145 40.1178 15.2344 40.1178ZM14.9368 47.5247C15.8719 48.468 14.4435 49.8958 13.5006 48.9608C13.5007 48.9608 12.1875 47.6476 12.1875 47.6476L10.8743 48.9608C10.4776 49.3575 9.8349 49.3575 9.43817 48.9608C9.04145 48.564 9.04145 47.9213 9.43817 47.5247L10.7513 46.2115L9.43817 44.8984C9.04145 44.5017 9.04145 43.8589 9.43817 43.4623C9.8349 43.0655 10.4776 43.0655 10.8743 43.4623L12.1875 44.7754L13.5007 43.4623C13.8974 43.0655 14.5401 43.0655 14.9368 43.4623C15.3336 43.8589 15.3336 44.5017 14.9368 44.8984L13.6237 46.2115L14.9368 47.5247Z" fill="#000000"/>
</svg>
